 http://www.postimg.com/49000/photo-48427.jpg

Format : Matroska
Format version : Version 2
File size : 906 MiB
Duration : 2h 6mn
Overall bit rate : 1 005 Kbps
Movie name : Iron Man 2008 
Encoded date : UTC 2011-09-24 05:15:35
Writing application : mkvmerge v4.9.1 ('Ich will') 
Writing library : libebml v1.2.1 + libmatroska v1.1.1

Video
ID : 1
Format : AVC
Format/Info : Advanced Video Codec
Format profile : High@L4.1
Format settings, CABAC : Yes
Format settings, ReFrames : 8 frames
Muxing mode : Header stripping
Codec ID : V_MPEG4/ISO/AVC
Duration : 2h 6mn
Bit rate : 750 Kbps
Width : 1 280 pixels
Height : 528 pixels
Display aspect ratio : 2.40:1
Frame rate : 23.976 fps
Color space : YUV
Chroma subsampling : 4:2:0
Bit depth : 8 bits
Scan type : Progressive
Bits/(Pixel*Frame) : 0.046
Stream size : 657 MiB (73%)
Writing library : x264 

Audio #1
Codec ID/Hint : MP3
Duration : 2h 6mn
Bit rate mode : Variable
Bit rate : 128 Kbps
Channel(s) : 2 channels
Mode : Joint stereo
Sampling rate : 48.0 KHz
Stream size : 115 MiB (13%)
Title : Henry[~KSRR~]
Language : English

Audio #2
Codec ID/Hint : MP3
Duration : 2h 6mn
Bit rate mode : Constant
Bit rate : 128 Kbps
Channel(s) : 2 channels
Mode : Joint stereo
Sampling rate : 48.0 KHz
Stream size : 115 MiB (13%)
Title : Henry[~KSRR~]
Language : Hindi

SCREENS
 
http://www.postimg.com/49000/photo-48413.jpg
 
http://www.postimg.com/49000/photo-48414.jpg

 
http://www.postimg.com/49000/photo-48415.jpg


Format : Matroska
Format version : Version 2
File size : 886 MiB
Duration : 1h 59mn
Overall bit rate : 1 038 Kbps
Movie name : Iron Man 2010 
Encoded date : UTC 2011-09-26 11:54:06
Writing application : mkvmerge v4.9.1 ('Ich will') 
Writing library : libebml v1.2.1 + libmatroska v1.1.1

Video
ID : 1
Format : AVC
Format/Info : Advanced Video Codec
Format profile : High@L4.0
Format settings, CABAC : Yes
Format settings, ReFrames : 8 frames
Muxing mode : Header stripping
Codec ID : V_MPEG4/ISO/AVC
Duration : 1h 59mn
Bit rate : 781 Kbps
Width : 1 280 pixels
Height : 544 pixels
Display aspect ratio : 2.35:1
Frame rate : 23.976 fps
Color space : YUV
Chroma subsampling : 4:2:0
Bit depth : 8 bits
Scan type : Progressive
Bits/(Pixel*Frame) : 0.047
Stream size : 650 MiB (73%)
Writing library : x264 

Audio #1
Codec ID/Hint : MP3
Duration : 1h 59mn
Bit rate : 128 Kbps
Channel(s) : 2 channels
Mode : Joint stereo
Sampling rate : 48.0 KHz
Stream size : 109 MiB (12%)
Title : Henry[~KSRR~]
Language : English

Audio #2
Codec ID/Hint : MP3
Duration : 1h 59mn
Bit rate : 128 Kbps
Channel(s) : 2 channels
Mode : Joint stereo
Sampling rate : 48.0 KHz
Stream size : 109 MiB (12%)
Title : Henry[~KSRR~]
Language : Hindi

SCREENS 
 
http://www.postimg.com/49000/photo-48419.jpg
 
http://www.postimg.com/49000/photo-48420.jpg
 
http://www.postimg.com/49000/photo-48421.jpg